<?xml version="1.0" encoding="utf-8"?>
<!-- Generator: Adobe Illustrator 23.1.0, SVG Export Plug-In . SVG Version: 6.00 Build 0)  -->
<svg version="1.1" id="fe80fb2b-bcaf-407e-919b-306adc32f78b"
	 xmlns="http://www.w3.org/2000/svg" xmlns:xlink="http://www.w3.org/1999/xlink" x="0px" y="0px" viewBox="0 0 1350.2 970.5"
	 style="enable-background:new 0 0 1350.2 970.5;" xml:space="preserve">
<style type="text/css">
	.st0{fill:#F2F2F2;}
	.st1{opacity:0.2;fill:#93C7EC;enable-background:new    ;}
	.st2{fill:#3F3D56;}
	.st3{fill:#93C7EC;}
	.st4{fill:none;stroke:#3F3D56;stroke-width:2;stroke-miterlimit:10;}
	.st5{opacity:0.1;enable-background:new    ;}
	.st6{fill:#FF6584;}
	.st7{fill:none;stroke:#3F3D56;stroke-miterlimit:10;}
	.st8{opacity:0.3;fill:#93C7EC;enable-background:new    ;}
	.st9{fill:#2F2E41;}
	.st10{fill:#FFC8BE;}
	.st11{opacity:0.1;fill:#F8945A;enable-background:new    ;}
	.st12{fill:#FFC8B8;}
</style>
<path class="st0" d="M358.3,463.3L168.9,565.9c13.4,23,5.5,52.5-17.5,65.9c-23,13.4-52.5,5.5-65.9-17.5c-0.5-0.9-0.9-1.7-1.4-2.5
	l-64.6,35l167.3,308.8l338.7-183.4L358.3,463.3z"/>
<rect x="126.1" y="728.6" transform="matrix(0.2581 -0.9661 0.9661 0.2581 -614.3549 693.0867)" class="st1" width="36" height="36"/>
<path class="st2" d="M214.6,873.7c-27.8,42.6-20.2,96.8-20.2,96.8s52.7-14.9,80.5-57.5s20.2-96.8,20.2-96.8S242.5,831.1,214.6,873.7
	z"/>
<path class="st3" d="M194.3,970.1c0,0-0.6-0.1-1.9-0.4c-1-0.2-2.4-0.5-4-0.9c-14.9-3.5-54.6-15.4-80.6-46.7
	c-32.5-39.2-31.1-93.9-31.1-93.9s49.7,8.1,82.4,43.3c1.4,1.5,2.8,3.1,4.2,4.7c28.3,34.1,30.9,80,31.1,91.3
	C194.3,969.2,194.3,970.1,194.3,970.1z"/>
<path class="st4" d="M174.3,873.7c27.8,42.6,20.2,96.8,20.2,96.8S141.7,955.7,114,913s-20.2-96.8-20.2-96.8S146.5,831.1,174.3,873.7
	z"/>
<path class="st5" d="M194.3,967.5c-0.7,0.9-1.4,1.7-1.9,2.2c-1.2,1.4-1.9,2-1.9,2s-0.8-1-2.2-3c-7.5-10.4-31.7-47.7-29.8-90.7
	c0.1-2.2,0.3-4.5,0.5-6.7c1.4,1.5,2.8,3.1,4.2,4.7C191.5,910.3,194.1,956.2,194.3,967.5z"/>
<path class="st3" d="M235.6,881.3c-2.2,50.8-40,90.5-40,90.5s-34.2-42.8-32-93.6s39.9-90.6,39.9-90.6S237.7,830.5,235.6,881.3z"/>
<circle class="st6" cx="24.3" cy="893.3" r="4.7"/>
<line class="st4" x1="117.5" y1="970.4" x2="538.7" y2="970.4"/>
<line class="st4" x1="0.1" y1="970.4" x2="93" y2="970.4"/>
<line class="st4" x1="47.3" y1="971.3" x2="47.3" y2="917.7"/>
<circle class="st2" cx="47.3" cy="917.7" r="7.6"/>
<path class="st2" d="M47.3,950.8c0,0-1.1-23.3-23.3-20.6"/>
<circle class="st2" cx="199.4" cy="761.2" r="14.6"/>
<circle class="st4" cx="153.6" cy="761.2" r="10.7"/>
<circle class="st4" cx="245.2" cy="761.2" r="10.7"/>
<line class="st4" x1="195.6" y1="970.4" x2="203.9" y2="789.7"/>
<circle class="st4" cx="356.2" cy="465" r="10.7"/>
<circle class="st4" cx="235.5" cy="531.2" r="10.7"/>
<circle class="st3" cx="124.4" cy="590.1" r="39.1"/>
<title>profile</title>
<path class="st0" d="M580.6,356.5h698.2c10.7,0,19.4,8.7,19.4,19.4v460.2c0,10.7-8.7,19.4-19.4,19.4H580.6
	c-10.7,0-19.4-8.7-19.4-19.4V375.9C561.2,365.1,569.9,356.5,580.6,356.5z"/>
<path class="st7" d="M558.1,325h698.2c10.7,0,19.4,8.7,19.4,19.4v460.2c0,10.7-8.7,19.4-19.4,19.4H558.1c-10.7,0-19.4-8.7-19.4-19.4
	V344.4C538.7,333.6,547.4,325,558.1,325z"/>
<line class="st7" x1="538.7" y1="372.8" x2="1275.7" y2="372.8"/>
<path class="st8" d="M986.3,485h186.8c3.9,0,7.1,3.2,7.1,7.1v16.8c0,3.9-3.2,7.1-7.1,7.1H986.3c-3.9,0-7.1-3.2-7.1-7.1v-16.8
	C979.2,488.1,982.4,485,986.3,485z"/>
<path class="st8" d="M947.8,571h263.8c3.9,0,7.1,3.2,7.1,7.1v10.8c0,3.9-3.2,7.1-7.1,7.1H947.8c-3.9,0-7.1-3.2-7.1-7.1v-10.8
	C940.7,574.1,943.9,571,947.8,571z"/>
<path class="st8" d="M947.8,639h263.8c3.9,0,7.1,3.2,7.1,7.1v10.8c0,3.9-3.2,7.1-7.1,7.1H947.8c-3.9,0-7.1-3.2-7.1-7.1v-10.8
	C940.7,642.1,943.9,639,947.8,639z"/>
<path class="st8" d="M947.8,707h263.8c3.9,0,7.1,3.2,7.1,7.1v10.8c0,3.9-3.2,7.1-7.1,7.1H947.8c-3.9,0-7.1-3.2-7.1-7.1v-10.8
	C940.7,710.1,943.9,707,947.8,707z"/>
<path class="st7" d="M996.3,475h186.8c3.9,0,7.1,3.2,7.1,7.1v16.8c0,3.9-3.2,7.1-7.1,7.1H996.3c-3.9,0-7.1-3.2-7.1-7.1v-16.8
	C989.2,478.1,992.4,475,996.3,475z"/>
<path class="st7" d="M957.8,561h263.8c3.9,0,7.1,3.2,7.1,7.1v10.8c0,3.9-3.2,7.1-7.1,7.1H957.8c-3.9,0-7.1-3.2-7.1-7.1v-10.8
	C950.7,564.1,953.9,561,957.8,561z"/>
<path class="st7" d="M957.8,629h263.8c3.9,0,7.1,3.2,7.1,7.1v10.8c0,3.9-3.2,7.1-7.1,7.1H957.8c-3.9,0-7.1-3.2-7.1-7.1v-10.8
	C950.7,632.1,953.9,629,957.8,629z"/>
<path class="st7" d="M957.8,697h263.8c3.9,0,7.1,3.2,7.1,7.1v10.8c0,3.9-3.2,7.1-7.1,7.1H957.8c-3.9,0-7.1-3.2-7.1-7.1v-10.8
	C950.7,700.1,953.9,697,957.8,697z"/>
<circle class="st8" cx="594.7" cy="355" r="15"/>
<circle class="st8" cx="636.7" cy="355" r="15"/>
<circle class="st8" cx="678.7" cy="355" r="15"/>
<circle class="st7" cx="600.7" cy="349" r="15"/>
<circle class="st7" cx="642.7" cy="349" r="15"/>
<circle class="st7" cx="684.7" cy="349" r="15"/>
<path class="st3" d="M771.6,803c-2.5-11.6-3.2-27.4-2.3-38.4c0,0-12.7-55.8-22.7-61l0,0c-0.2,0.2-5,6.6-5.6,26.2
	c-0.6,20-7.7,33.1-7.7,33.1s2.3,24.9,1,40L771.6,803z"/>
<path class="st3" d="M863.9,448H633.5c-13.1,0-23.8,10.6-23.8,23.8l0,0v307.5c0,13.1,10.6,23.8,23.8,23.8l0,0h80.9
	c-2.7-11.2-6.1-28.7-2.7-40.9l0,0l0,0c0.2-0.6,0.3-1.1,0.5-1.7c2.3-7.9,3.1-16.2,2.3-24.4c1.5-7,1.5-14.2,0-21.2
	c-2.5-11.7-4.2-23.1-4.2-23.1s-1.4-15.4-0.2-24.8c0-0.2,0.1-0.4,0.1-0.6c-0.4-0.1-0.7-0.2-0.7-0.2s3.5-16,4.8-26.2
	c0.3-2.4,0.7-5.5,1.1-8.7c-1.2-0.2-2.3-0.5-3.4-0.9c-11.2-4-14.8-39.8-14.8-39.8v-11.3c0,0-3.7-17.4,9.4-25.1
	c12.6-7.4,17.7-9.4,18-9.6c0.1-0.1,0.2-0.1,0.3-0.2c1.4-1.1,2.6-2.6,3.3-4.2c0-0.3,0-0.6,0-0.9c-0.2-4.1-3-7.8-5.7-11
	c-2.3-2.8-4.6-5.5-6.9-8.3c-0.8-0.8-1.4-1.8-1.8-2.9c-0.1-0.6-0.2-1.2-0.2-1.8c0-0.2,0-0.4,0-0.7c0-2.1,0.1-4.1,0.2-6.2
	c0.1-1.8,0.5-4.1,2.3-4.4c0.9-0.2,2.1,0.1,2.6-0.7c0.2-0.3,0.2-0.7,0.1-1.1v0.1v-0.1c-0.4-1.4-0.6-2.9-0.7-4.4c0-0.7,0.1-1.3,0.3-2
	c1-3,4.5-4.2,7.6-4.8c3.1-0.6,6.6-1,8.5-3.5c0.5-0.8,1.1-1.6,1.7-2.4c0.9-0.8,2-1.4,3.2-1.6c3.8-1,7.9-0.6,11.5,1
	c1.5,0.7,3,1.6,4.6,1.5c1.7-0.1,3.2-1.3,4.8-1.6c2.7-0.5,5.3,1.6,6.7,4c0.9,1.5,1.3,3.3,1.2,5c0,1.7-0.6,3.4-1.8,4.7
	c-1.2,1.2-2.9,2.1-3.4,3.7c-0.2,0.7-0.2,1.4-0.3,2.1c0,0.1-0.1,0.2-0.1,0.2l0.1,0.1c7.1,9.3,5.3,22.7-4.1,29.7
	c-1.9,1.4-4,2.5-6.3,3.3c0,0.2,0,0.4,0,0.6c-0.1,2.7,0.9,5.2,2.8,7.1l18.5,7.6c0,0,11.2-1.4,15.2,15.3c0.6,2.8,0.9,5.6,0.7,8.5
	c-0.1,2.5,0.2,6.9,3.1,12.7c4.6,9.2,3.5,30.2-5.8,32.3c-8.9,2-12.3,1.1-12.7,1.1v0.4c0.1,3.9,1.6,38,6.6,42.1c1.4,1.1,1.1,1.9,0,2.4
	l0,0c0,0,0,0.2,0,0.6c0.2,2.5,0.9,12,4.4,17.4c4,6.2,3.5,42.3,3.5,42.3l2.7,21.2c0,0-1.7,13.1,0,15.4c0.9,1.3,2.1,21.4,2.9,38.6
	h69.5c13.1,0,23.8-10.6,23.8-23.8V471.7C887.7,458.6,877.1,448,863.9,448L863.9,448z"/>
<path class="st7" d="M609.5,421H840c13.1,0,23.8,10.6,23.8,23.8v307.5c0,13.1-10.6,23.8-23.8,23.8H609.5
	c-13.1,0-23.8-10.6-23.8-23.8V444.7C585.7,431.6,596.3,421,609.5,421z"/>
<path class="st9" d="M419,549.3c0,0-9.3-2.8-11.3,0.2s2.7,24.7,2.7,24.7l20.5,1.2l-7.2-18.1L419,549.3z"/>
<path class="st10" d="M347.1,727.9c0,0,18.7,41,4.3,39.8c-14.4-1.2-20-39.8-20-39.8H347.1z"/>
<path class="st10" d="M469.4,723.6c0,0-8.2,44.3,5.5,39.6c13.7-4.7,9.8-43.4,9.8-43.4L469.4,723.6z"/>
<path class="st10" d="M415,539c0,0-0.2,20.6,7.7,21.7c7.9,1.1-4.5,12-4.5,12l-14.2,2.8l-20.4-1.5l-9-11.6c0,0,15.9-7.5,9-30.9
	L415,539z"/>
<path class="st11" d="M415,539c0,0-0.2,20.6,7.7,21.7c7.9,1.1-4.5,12-4.5,12l-14.2,2.8l-20.4-1.5l-9-11.6c0,0,15.9-7.5,9-30.9
	L415,539z"/>
<path class="st9" d="M451.6,713.5c0,0,10.1,21.7,2.1,89.8c0,0,2.4,24.1,0.4,28.6s-17.8,65.8-17.8,65.8s-20.4,4.5-23.2-9
	c0,0,2.8-19.3,2.6-22.3c-0.2-3,4.5-35.9,4.5-35.9l-9.7-63.6l-7.3,57.3c0,0,0,16.5-2.4,20.2c-2.4,3.7,0,77.1,0,77.1
	s6.7,11.2-3.4,11.4c-10.1,0.2-19.1-0.2-20-7.3c-0.9-7.1-1.3-14.2-3.4-18.5s-4.9-53.5-4.3-70.7s-14.2-105.5-9.4-114.7
	C365.1,712.5,451.6,713.5,451.6,713.5z"/>
<ellipse class="st12" cx="403.2" cy="517.1" rx="26.5" ry="35.2"/>
<path class="st0" d="M378.3,562.9c0,0,15.7,11.6,38.5,2.4c0,0,7.5-3.7,6.9-9.2c-0.6-5.6,15.7,44.9,15.7,44.9l16.5,87.9l-0.9,35.9
	c0,0-7.3-3.7-30.1,4.5c-22.8,8.2-60-9.2-60-9.2l1.3-92.2l1.3-53.7l3.4-11.8C371,562.2,372.7,559,378.3,562.9z"/>
<path class="st9" d="M415.8,548.5c0,0,3.8-0.6,7.4,5.2c3.7,5.8,12.2,9.5,12.2,9.5s20.8,1.3,23.9,12.5c3,11.2,10.5,26.4,14.2,54.6
	c3.7,28.1,11,73.1,12,76.7s-1.5,14.8,1.5,18.3s-21.3,3.4-21.3,3.4s-2.1-17.6-3.7-17.6c-1.6,0-1.1,11.8,0.4,20.4c1.5,8.6-11,0-11,0
	s-9.7-39.3-18.9-74.8c-9.2-35.5-14.6-55-12.9-63c1.7-8,6.4-30.7,3-32.9C419.3,558.6,415.8,548.5,415.8,548.5z"/>
<path class="st9" d="M384.8,548.4c0,0-5.6,3.1-19.8,13.2c-14.2,10.1-23.9,17.8-23.9,17.8s-5.6,4.3-9,29.9
	c-3.4,25.6-11.2,91.8-8.2,100.1s4.1,13.3,3,18.3c-1.1,5,22.6,4.7,23,3.7c0.4-1-0.6-20.6,0.4-21.1s6.9,11.6,8,21.7
	c1.1,10.1,13.5,18,16.3,18c2.8,0,17.2-58.2,17.4-98c0.2-39.8-4.7-73.3-8.4-78C380,569.3,384.8,548.4,384.8,548.4z"/>
<path class="st2" d="M422.6,899.6c0,0,1.7-4.7,7.7-3.2s10.1-3.9,10.1-3.9s3.2-0.4,1.1,3.7s-3.9,6.9-3.9,6.9s12.9,29.4,4.5,36.5
	s-18.1,2.8-18.1,2.8s-9.5-6.7-9-24.3c0,0-0.4-5.6-5.6-14.6c-5.2-9-9-22.8-2.8-25.4c6.2-2.6,7.8-2.7,7.8-2.7s-2.9,13.3,4.6,18
	L422.6,899.6z"/>
<path class="st2" d="M382.6,932.9c0,0-5.2-9.7,3.4-10.7c8.6-1,17.8-1.7,17.4,2.8c-0.4,4.5-1.5,11.4-1.5,11.4l1.5,4.9
	c0,0,0.4,12.2,1.9,13.8s9.7,14.4-7.7,14.4s-22.6-1.9-21.1-6s1.9-24.3,1.9-24.3L382.6,932.9z"/>
<path class="st9" d="M401.3,500.4c0,0,12,3.2,18.3,4.5s5.6-2.4,5.6-2.4s8.2,1.1,7.7,0.2c-0.4-0.9,3.4-5.4-1.1-10.5s-3.2-9-3.2-9
	h-3.9l-1.1-1.5h-6c0,0-4.5-1.7-16.3,0c-11.8,1.7-27.9,2.1-29.2,9.2c-1.3,7.1-8,15.9-5.6,20s15.9,20.8,17.2,27.9
	c1.3,7.1,7.3,8.7,7.1,4.2c-0.2-4.5-6.2-19.9-1.1-20.6C394.8,521.7,403.7,508.7,401.3,500.4z"/>
<path class="st7" d="M1253.1,236.2c-8.7,0.5-16.4,5.9-19.8,13.9c-5,12,1.4,26,11,34.8c9.6,8.8,21.9,13.7,33,20.3
	c15,8.8,28.5,21,36,36.7c7.5,15.7,8.3,35.2-0.5,50.1c-8.2,13.9-23.1,22.3-37.3,29.9"/>
<ellipse class="st3" cx="1265.7" cy="237.2" rx="17.5" ry="8.5"/>
<ellipse class="st3" cx="1279.7" cy="293.2" rx="17.5" ry="8.5"/>
<ellipse class="st3" cx="1247.7" cy="302.2" rx="17.5" ry="8.5"/>
<ellipse class="st3" cx="1297.7" cy="349.2" rx="17.5" ry="8.5"/>
<ellipse class="st3" cx="1332.7" cy="349.2" rx="17.5" ry="8.5"/>
<circle class="st3" cx="1178" cy="159.4" r="34.8"/>
<circle class="st3" cx="1118.9" cy="241.3" r="34.8"/>
<circle class="st3" cx="1052.4" cy="306.7" r="34.8"/>
<line class="st4" x1="1052.3" y1="369.6" x2="1052.3" y2="306.5"/>
<circle class="st2" cx="1052.3" cy="306.5" r="8.9"/>
<path class="st2" d="M1052.3,345.4c0,0-1.3-27.4-27.4-24.2"/>
<line class="st4" x1="1178" y1="370" x2="1178" y2="159.5"/>
<circle class="st2" cx="1178" cy="159.4" r="8.9"/>
<circle class="st2" cx="1150.6" cy="311.7" r="8.9"/>
<path class="st2" d="M1178,205c0,0-1.3-27.4-27.4-24.2"/>
<path class="st2" d="M1178,282.7c0,0-1.3-27.4-27.4-24.2"/>
<path class="st4" d="M1178,367.6c0,0,5.7-53.3-27.4-55.8"/>
<circle class="st2" cx="1205.5" cy="311.7" r="8.9"/>
<path class="st4" d="M1178,367.6c0,0-5.7-53.3,27.4-55.8"/>
<circle class="st2" cx="1206" cy="228" r="8.9"/>
<path class="st4" d="M1178.6,281c0,0-5.7-50.4,27.4-53"/>
<line class="st4" x1="1119" y1="369.7" x2="1119" y2="241.2"/>
<circle class="st2" cx="1119" cy="241.2" r="8.9"/>
<path class="st2" d="M1119,277.6c0,0-1.3-27.4-27.4-24.2"/>
<path class="st4" d="M1119,367.3c0,0,5.7-52.7-27.4-55.3"/>
<circle class="st2" cx="1091.5" cy="312" r="8.9"/>
<circle class="st0" cx="985.5" cy="146.7" r="18.2"/>
<circle class="st0" cx="1169.2" cy="79" r="18.2"/>
</svg>
