<svg width="93" height="70" viewBox="0 0 93 89" fill="none" xmlns="http://www.w3.org/2000/svg">
<g filter="url(#filter0_i)">
<path d="M46.5 0L66.96 10.5864L86.7702 22.25L87.42 44.5L86.7702 66.75L66.96 78.4136L46.5 89L26.04 78.4136L6.22982 66.75L5.58 44.5L6.22982 22.25L26.04 10.5864L46.5 0Z" fill="#93C7EC"/>
</g>
<g style="mix-blend-mode:overlay">
<path d="M59.1416 55.08H71.5736L68.7896 69H63.1256L62.2136 65.928H62.0216C61.1896 66.888 60.1976 67.704 59.0456 68.376C57.9256 69.048 56.4536 69.384 54.6296 69.384C53.2216 69.384 51.8616 69.16 50.5496 68.712C49.2696 68.232 48.1176 67.496 47.0936 66.504C46.1016 65.48 45.3016 64.152 44.6936 62.52C44.0856 60.888 43.7816 58.92 43.7816 56.616C43.7816 54.12 44.1656 51.752 44.9336 49.512C45.7016 47.272 46.8536 45.304 48.3896 43.608C49.9256 41.88 51.8456 40.52 54.1496 39.528C56.4536 38.536 59.1416 38.04 62.2136 38.04C64.5816 38.04 66.6456 38.312 68.4056 38.856C70.1656 39.4 71.8296 40.008 73.3976 40.68L71.5736 49.992H63.4616C63.4936 49.64 63.5416 49.224 63.6056 48.744C63.6696 48.264 63.7176 47.768 63.7496 47.256C63.7816 46.712 63.8136 46.184 63.8456 45.672C63.8776 45.16 63.8936 44.712 63.8936 44.328C63.8936 44.072 63.8776 43.784 63.8456 43.464C63.8136 43.112 63.7336 42.776 63.6056 42.456C63.4776 42.136 63.2856 41.88 63.0296 41.688C62.7736 41.464 62.4056 41.352 61.9256 41.352C61.0936 41.352 60.3256 41.704 59.6216 42.408C58.9496 43.08 58.3416 43.992 57.7976 45.144C57.2536 46.264 56.7736 47.544 56.3576 48.984C55.9736 50.424 55.6376 51.896 55.3496 53.4C55.0936 54.872 54.8856 56.328 54.7256 57.768C54.5976 59.176 54.5336 60.408 54.5336 61.464C54.5336 61.784 54.5496 62.184 54.5816 62.664C54.6136 63.144 54.7096 63.624 54.8696 64.104C55.0616 64.552 55.3176 64.952 55.6376 65.304C55.9896 65.624 56.4856 65.784 57.1256 65.784C58.1816 65.784 59.2056 65.208 60.1976 64.056C61.1896 62.904 61.9416 60.984 62.4536 58.296H58.4216L59.1416 55.08Z" fill="black"/>
</g>
<g style="mix-blend-mode:overlay">
<path d="M54.482 56H43.826L48.242 35.264L36.866 56H30.338L28.178 34.544L23.57 56H19.25L25.73 25.52H37.97L39.458 42.704L48.674 25.52H61.01L54.482 56Z" fill="black"/>
</g>
<defs>
<filter id="filter0_i" x="5.58002" y="0" width="82.84" height="90" filterUnits="userSpaceOnUse" color-interpolation-filters="sRGB">
<feFlood flood-opacity="0" result="BackgroundImageFix"/>
<feBlend mode="normal" in="SourceGraphic" in2="BackgroundImageFix" result="shape"/>
<feColorMatrix in="SourceAlpha" type="matrix" values="0 0 0 0 0 0 0 0 0 0 0 0 0 0 0 0 0 0 127 0" result="hardAlpha"/>
<feOffset dx="1" dy="1"/>
<feGaussianBlur stdDeviation="5"/>
<feComposite in2="hardAlpha" operator="arithmetic" k2="-1" k3="1"/>
<feColorMatrix type="matrix" values="0 0 0 0 0 0 0 0 0 0 0 0 0 0 0 0 0 0 0.25 0"/>
<feBlend mode="normal" in2="shape" result="effect1_innerShadow"/>
</filter>
</defs>
</svg>
