<?xml version="1.0" encoding="utf-8"?>
<!-- Generator: Adobe Illustrator 23.1.0, SVG Export Plug-In . SVG Version: 6.00 Build 0)  -->
<svg version="1.1" id="Capa_1" xmlns="http://www.w3.org/2000/svg" xmlns:xlink="http://www.w3.org/1999/xlink" x="0px" y="0px"
	 viewBox="0 0 384 384" style="enable-background:new 0 0 384 384;" xml:space="preserve">
<style type="text/css">
	.st0{fill:#FFFFFF;stroke:#000000;stroke-miterlimit:10;}
	.st1{fill:#FF3F3F;}
	.st2{fill:#000A64;}
</style>
<circle class="st0" cx="191.7" cy="192" r="169.9"/>
<path class="st1" d="M367.2,174.7L367.2,174.7c-0.1,0-27.4,27.5-95.4,32.5c-1.3-42.8-36.5-77.2-79.7-77.2
	c-43.3,0-78.5,34.3-79.8,77.2c-68.1-5-95.4-32.5-95.4-32.5h-0.1C25.5,85.6,100.7,16,192,16S358.5,85.6,367.2,174.7z"/>
<g>
	<path class="st2" d="M192,384c105.8,0,192-86.1,192-192c0-6.3-0.3-12.7-0.9-18.8l0,0l0,0C373.5,74.4,291.3,0,192.1,0
		C92.7,0,10.5,74.4,0.9,173.1l0,0l0,0C0.3,179.4,0,185.7,0,192C0,297.9,86.2,384,192,384z M192.1,32c79.8,0,146.3,57.7,158.2,135.6
		c-0.2,0.1-0.5,0.3-0.7,0.5c-0.8,0.5-1.6,1-2.5,1.6c-0.4,0.3-0.9,0.5-1.4,0.8c-1.1,0.6-2.3,1.3-3.6,2c-0.4,0.2-0.7,0.4-1.2,0.6
		c-1.7,0.9-3.6,1.8-5.7,2.8c-0.4,0.2-0.9,0.4-1.3,0.6c-1.7,0.7-3.4,1.5-5.3,2.2c-0.7,0.3-1.5,0.6-2.3,0.9c-1.8,0.7-3.7,1.4-5.7,2
		c-0.8,0.3-1.6,0.5-2.4,0.8c-2.8,0.9-5.8,1.8-9,2.6c-0.1,0-0.1,0-0.2,0c-3.1,0.8-6.4,1.5-9.8,2.2c-1.1,0.2-2.2,0.4-3.3,0.6
		c-2.6,0.5-5.2,0.9-8,1.3c-0.7,0.1-1.5,0.2-2.3,0.3c-0.1-0.4-0.2-0.8-0.3-1.2c-0.2-1.1-0.6-2.2-0.8-3.3c-0.5-1.8-0.9-3.5-1.5-5.2
		c-0.4-1.1-0.8-2.2-1.2-3.3c-0.6-1.6-1.2-3.3-1.9-4.8c-0.5-1.1-1-2.2-1.5-3.2c-0.7-1.6-1.5-3.1-2.4-4.6c-0.6-1-1.1-2-1.7-3
		c-0.9-1.5-1.9-3-2.9-4.5c-0.6-0.9-1.2-1.8-1.8-2.7c-1.1-1.6-2.4-3.1-3.6-4.6c-0.6-0.7-1.1-1.4-1.7-2.1c-1.9-2.1-3.8-4.2-5.8-6.2
		c-0.2-0.2-0.4-0.4-0.6-0.6c-1.8-1.8-3.8-3.4-5.8-5c-0.8-0.6-1.6-1.2-2.4-1.8c-1.5-1.1-3-2.2-4.5-3.3c-0.9-0.6-1.9-1.2-2.9-1.8
		c-1.5-0.9-2.9-1.8-4.4-2.6c-1-0.6-2.1-1.1-3.2-1.6c-1.5-0.8-3-1.5-4.6-2.1c-1.1-0.5-2.2-0.9-3.4-1.4c-1.6-0.6-3.2-1.2-4.8-1.7
		c-1.2-0.4-2.3-0.8-3.5-1.1c-1.7-0.5-3.5-0.9-5.2-1.3c-1.1-0.3-2.2-0.5-3.4-0.8c-2-0.4-3.9-0.6-5.9-0.9c-1-0.1-2-0.3-3-0.4
		c-3-0.3-6-0.4-9.1-0.4s-6.1,0.2-9.1,0.4c-1,0.1-2,0.3-2.9,0.4c-2,0.2-4,0.5-6,0.9c-1.1,0.2-2.2,0.5-3.4,0.7
		c-1.8,0.4-3.5,0.8-5.2,1.3c-1.2,0.3-2.3,0.7-3.4,1.1c-1.6,0.5-3.3,1.1-4.9,1.7c-1.1,0.4-2.2,0.9-3.3,1.4c-1.6,0.7-3.1,1.4-4.7,2.2
		c-1,0.5-2.1,1-3.1,1.6c-1.6,0.8-3.1,1.7-4.5,2.7c-0.9,0.6-1.9,1.1-2.8,1.8c-1.6,1.1-3.1,2.2-4.6,3.4c-0.7,0.6-1.5,1.1-2.2,1.7
		c-2.1,1.7-4.1,3.4-6,5.2c-0.1,0.1-0.3,0.2-0.4,0.4c-2.1,2-4,4.1-5.9,6.2c-0.5,0.6-1,1.3-1.6,1.9c-1.3,1.6-2.5,3.1-3.7,4.8
		c-0.6,0.9-1.2,1.8-1.8,2.6c-1,1.5-2,3-2.9,4.6c-0.6,1-1.1,2-1.7,3c-0.8,1.5-1.6,3.1-2.4,4.7c-0.5,1.1-1,2.1-1.4,3.2
		c-0.7,1.6-1.3,3.2-1.9,4.9c-0.4,1.1-0.8,2.2-1.2,3.3c-0.6,1.7-1,3.5-1.5,5.2c-0.3,1.1-0.6,2.2-0.8,3.3c-0.1,0.4-0.2,0.8-0.3,1.2
		c-0.8-0.1-1.5-0.2-2.2-0.3c-2.8-0.4-5.4-0.9-8-1.3c-1.1-0.2-2.2-0.4-3.3-0.6c-3.5-0.7-6.8-1.4-9.9-2.3c0,0,0,0-0.1,0
		c-3.2-0.8-6.2-1.7-9-2.6c-0.8-0.3-1.6-0.6-2.5-0.8c-2-0.7-3.9-1.3-5.6-2c-0.8-0.3-1.6-0.6-2.3-0.9c-1.9-0.7-3.6-1.5-5.3-2.2
		c-0.4-0.2-0.9-0.4-1.3-0.6c-2-0.9-3.9-1.9-5.6-2.8c-0.4-0.2-0.8-0.4-1.2-0.6c-1.3-0.7-2.5-1.4-3.6-2c-0.4-0.3-0.9-0.5-1.3-0.8
		c-1-0.6-1.9-1.2-2.7-1.7c-0.2-0.1-0.4-0.2-0.5-0.4C45.6,89.7,112.2,32,192.1,32z M255.9,209.8c0,35.2-28.6,63.8-63.8,63.8
		s-63.9-28.6-63.9-63.8v-1c0-0.4,0.1-0.7,0.1-1.1c1-34.7,29-61.7,63.7-61.7s62.6,27.1,63.7,61.7c0,0.2,0,0.8,0.1,1
		C255.9,209,255.9,209.4,255.9,209.8z M34.5,204.5c0.9,0.4,1.8,0.8,2.7,1.3c1.2,0.5,2.4,1,3.7,1.6c1,0.4,1.9,0.8,2.9,1.2
		c1.4,0.5,2.8,1.1,4.2,1.6c1,0.4,2,0.8,3.1,1.1c1.6,0.6,3.3,1.1,4.9,1.6c1,0.3,2,0.7,3,1c2.2,0.7,4.5,1.3,6.8,1.9
		c0.6,0.2,1.2,0.4,1.9,0.5c3,0.8,6.1,1.5,9.3,2.2c1,0.2,2,0.4,3,0.6c2.3,0.5,4.6,0.9,7,1.3c1.4,0.2,2.8,0.4,4.2,0.6
		c1.8,0.3,3.6,0.6,5.5,0.8c0.2,1.5,0.5,3,0.8,4.5c0.2,1.2,0.4,2.4,0.6,3.5c0.4,2.1,1,4.1,1.6,6.1c0.3,0.9,0.4,1.8,0.7,2.7
		c0.9,2.9,1.9,5.7,3.1,8.5c0.1,0.3,0.3,0.5,0.4,0.8c1.1,2.5,2.2,4.9,3.5,7.3c0.5,0.9,1,1.7,1.5,2.6c1,1.7,2,3.4,3.1,5
		c0.7,1,1.4,1.9,2.1,2.9c1,1.4,2.1,2.9,3.2,4.3c0.8,1,1.6,1.9,2.5,2.8c1.1,1.3,2.3,2.6,3.4,3.8c0.9,0.9,1.8,1.8,2.8,2.7
		c1.2,1.2,2.4,2.3,3.7,3.4c1,0.8,2,1.7,3,2.5c1.3,1,2.6,2,4,3c1.1,0.8,2.2,1.5,3.3,2.2c1.4,0.9,2.8,1.8,4.3,2.6
		c1.1,0.7,2.3,1.3,3.4,1.9c1.5,0.8,3,1.5,4.6,2.2c1.2,0.5,2.4,1.1,3.6,1.6c1.6,0.7,3.2,1.2,4.9,1.8c1.2,0.4,2.4,0.9,3.6,1.2
		c1.8,0.5,3.5,0.9,5.3,1.4c1.2,0.3,2.3,0.6,3.5,0.8c2,0.4,4.1,0.7,6.1,0.9c1,0.1,2,0.3,3,0.4c3.1,0.3,6.3,0.5,9.4,0.5
		s6.3-0.2,9.4-0.5c1-0.1,2-0.3,3-0.4c2.1-0.3,4.1-0.5,6.1-0.9c1.2-0.2,2.4-0.6,3.5-0.8c1.8-0.4,3.6-0.8,5.3-1.4
		c1.2-0.4,2.4-0.8,3.6-1.2c1.6-0.6,3.3-1.1,4.9-1.8c1.2-0.5,2.4-1,3.6-1.6c1.5-0.7,3.1-1.4,4.6-2.2c1.2-0.6,2.3-1.2,3.4-1.9
		c1.4-0.8,2.9-1.7,4.3-2.6c1.1-0.7,2.2-1.4,3.3-2.2c1.4-1,2.7-2,4-3c1-0.8,2-1.6,3-2.5c1.3-1.1,2.5-2.2,3.7-3.4
		c0.9-0.9,1.9-1.8,2.7-2.7c1.2-1.2,2.3-2.5,3.5-3.8c0.8-0.9,1.6-1.8,2.4-2.8c1.1-1.4,2.2-2.8,3.2-4.3c0.7-1,1.4-1.9,2-2.8
		c1.1-1.6,2.1-3.4,3.1-5.1c0.5-0.9,1-1.7,1.5-2.6c1.3-2.4,2.5-4.9,3.6-7.4c0.1-0.2,0.2-0.4,0.3-0.7c1.2-2.8,2.2-5.6,3.1-8.5
		c0.3-0.9,0.5-1.8,0.7-2.7c0.6-2,1.1-4,1.6-6.1c0.2-1.2,0.4-2.4,0.6-3.6c0.3-1.5,0.6-3,0.8-4.5c1.7-0.2,3.2-0.5,4.8-0.7
		c1.6-0.2,3.2-0.4,4.7-0.7c2-0.3,3.9-0.7,5.8-1.1c1.4-0.3,2.8-0.5,4.2-0.8c2-0.4,4-0.9,5.9-1.4c1.1-0.3,2.3-0.5,3.3-0.8
		c2.6-0.7,5-1.3,7.4-2c0.4-0.1,0.8-0.2,1.1-0.3c2.8-0.8,5.4-1.7,7.9-2.5c0.8-0.3,1.5-0.6,2.2-0.8c1.7-0.6,3.4-1.2,5-1.8
		c0.9-0.4,1.7-0.7,2.6-1.1c1.4-0.6,2.7-1.1,4-1.7c0.9-0.4,1.6-0.8,2.5-1.1c1-0.4,2-0.9,2.9-1.3C345.7,286.4,276.4,352,192.1,352
		c-84.4,0-153.7-65.6-159.6-148.5C33.1,203.8,33.8,204.2,34.5,204.5z"/>
	<path class="st2" d="M192,158.7c-28.2,0-51.1,22.9-51.1,51.1s22.9,51.1,51.1,51.1s51.1-22.9,51.1-51.1
		C243.1,181.6,220.2,158.7,192,158.7z M192,228.9c-10.5,0-19.1-8.6-19.1-19.1s8.6-19.1,19.1-19.1s19.1,8.6,19.1,19.1
		C211.1,220.3,202.5,228.9,192,228.9z"/>
</g>
</svg>
