<?xml version="1.0" encoding="utf-8"?>
<!-- Generator: Adobe Illustrator 23.1.0, SVG Export Plug-In . SVG Version: 6.00 Build 0)  -->
<svg version="1.1" id="Calque_1" xmlns="http://www.w3.org/2000/svg" xmlns:xlink="http://www.w3.org/1999/xlink" x="0px" y="0px"
	 viewBox="0 0 480 480" style="enable-background:new 0 0 480 480;" xml:space="preserve">
<style type="text/css">
	.st0{fill:#FFFFFF;}
</style>
<rect x="16" y="112" class="st0" width="448" height="200"/>
<rect x="32" y="312" class="st0" width="416" height="128"/>
<rect x="144" y="40" class="st0" width="16" height="56"/>
<rect x="320" y="40" class="st0" width="16" height="56"/>
<rect x="144" y="40" class="st0" width="192" height="23"/>
<path d="M456,96H352V64c0-22.1-17.9-40-40-40H168c-22.1,0-40,17.9-40,40v32H24c-13.3,0-24,10.7-24,24v178.1
	c0.1,10.1,6.4,19.2,16,22.6V432c0,13.3,10.7,24,24,24h400c13.3,0,24-10.7,24-24V320.7c9.6-3.4,16-12.4,16-22.6V120
	C480,106.7,469.3,96,456,96z M144,64c0-13.3,10.7-24,24-24h144c13.3,0,24,10.7,24,24v32h-16V64c0-4.4-3.6-8-8-8H168
	c-4.4,0-8,3.6-8,8v32h-16V64z M304,96H176V72h128V96z M448,432c0,4.4-3.6,8-8,8H40c-4.4,0-8-3.6-8-8V323.4l176,24.3V368
	c0,13.3,10.7,24,24,24h16c13.3,0,24-10.7,24-24v-20.3l176-24.3V432z M256,368c0,4.4-3.6,8-8,8h-16c-4.4,0-8-3.6-8-8v-48
	c0-4.4,3.6-8,8-8h16c4.4,0,8,3.6,8,8V368z M464,298.1c0,4-2.9,7.4-6.9,7.9l-2.2,0.3L272,331.5V320c0-13.3-10.7-24-24-24h-16
	c-13.3,0-24,10.7-24,24v11.5L22.9,306c-3.9-0.6-6.9-3.9-6.9-7.9V120c0-4.4,3.6-8,8-8h432c4.4,0,8,3.6,8,8V298.1z"/>
</svg>
