<svg id="Capa_1" enable-background="new 0 0 512 512" height="512" viewBox="0 0 512 512" width="512" xmlns="http://www.w3.org/2000/svg"><g><g><g><path d="m320.482 366.348v107.759h-128.964v-107.759h55.309c-12.679 3.912-21.885 15.72-21.885 29.675 0 17.151 13.907 31.058 31.058 31.058s31.058-13.907 31.058-31.058c0-13.955-9.206-25.764-21.884-29.675z" fill="#b5b1a4"/><path d="m191.518 414.464v24.223c0 7.85 6.364 14.214 14.214 14.214 7.85 0 14.214-6.364 14.214-14.214v-24.223c0-7.85-6.364-14.214-14.214-14.214-7.851 0-14.214 6.363-14.214 14.214z" fill="#d8d4c9"/><path d="m320.48 366.348v107.76h-80.99c33.1-10.24 57.14-41.09 57.14-77.56 0-10.67-2.06-20.86-5.81-30.2z" fill="#8f8b81"/><path d="m492 373.066h-472c-11.046 0-20-8.954-20-20v-291.216c0-11.046 8.954-20 20-20h472c11.046 0 20 8.954 20 20v291.216c0 11.046-8.954 20-20 20z" fill="#f1eee0"/><path d="m512 61.848v291.22c0 11.04-8.95 20-20 20h-202.51c117.6-36.14 203.09-145.63 203.09-275.09 0-19.21-1.88-37.98-5.48-56.13h4.9c11.05 0 20 8.959 20 20z" fill="#e8e4d8"/><path d="m512 61.848v149.93h-281c-5.523 0-10-4.477-10-10v-159.93h271c11.05 0 20 8.959 20 20z" fill="#706c64"/><path d="m397.98 311.267c-30.82 27.93-67.73 49.27-108.49 61.8h-269.49c-11.05 0-20-8.96-20-20v-41.8z" fill="#8f8b81"/><path d="m343.72 490.962h-175.44c-2.761 0-5-2.239-5-5v-5c0-9.093 7.371-16.464 16.464-16.464h152.513c9.093 0 16.464 7.371 16.464 16.464v5c-.001 2.761-2.239 5-5.001 5z" fill="#d8d4c9"/><path d="m512 311.267v41.8c0 11.04-8.95 20-20 20h-202.51c40.76-12.53 77.67-33.87 108.49-61.8z" fill="#706c64"/><path d="m512 311.267v41.8c0 11.04-8.95 20-20 20h-94.44c85.972-8.435 114.44-61.8 114.44-61.8z" fill="#595751"/><path d="m348.72 480.957v5c0 2.77-2.24 5-5 5h-56.34c14.69-3.93 27.03-13.6 34.48-26.46h10.4c9.09 0 16.46 7.37 16.46 16.46z" fill="#b5b1a4"/><path d="m242.042 339.183h-201.012c-7.709 0-13.958-6.249-13.958-13.958 0-7.709 6.249-13.958 13.958-13.958h201.012c7.709 0 13.958 6.249 13.958 13.958 0 7.709-6.249 13.958-13.958 13.958z" fill="#b5b1a4"/><path d="m73.845 325.225c0 7.709 6.249 13.958 13.958 13.958h45.857c7.709 0 13.958-6.249 13.958-13.958 0-7.709-6.249-13.958-13.958-13.958h-45.857c-7.709 0-13.958 6.25-13.958 13.958z" fill="#d8d4c9"/></g></g><g><path d="m306.171 211.778h-53.695v-25.739c0-5.523 4.477-10 10-10h33.695c5.523 0 10 4.477 10 10z" fill="#fe255f"/><path d="m385.568 211.778h-53.695v-130.74c0-5.523 4.477-10 10-10h33.695c5.523 0 10 4.477 10 10z" fill="#ffc751"/><path d="m464.964 211.778h-53.695v-180.74c0-5.523 4.477-10 10-10h33.695c5.523 0 10 4.477 10 10z" fill="#29e088"/><path d="m411.269 63.641v80.427c0 7.414 6.01 13.424 13.424 13.424 7.414 0 13.424-6.01 13.424-13.424v-80.427c0-7.414-6.01-13.424-13.424-13.424-7.414 0-13.424 6.01-13.424 13.424z" fill="#79ff79"/><path d="m331.872 109.533v45.427c0 7.414 6.01 13.424 13.424 13.424 7.414 0 13.424-6.01 13.424-13.424v-45.427c0-7.414-6.01-13.424-13.424-13.424-7.414 0-13.424 6.01-13.424 13.424z" fill="#ffe059"/></g><path d="m512 61.848v149.93h-42.79c15.04-34.9 23.37-73.38 23.37-113.8 0-19.21-1.88-37.98-5.48-56.13h4.9c11.05 0 20 8.959 20 20z" fill="#595751"/><path d="m464.96 137.098v74.68h-53.69v-5.24c24.99-16.211 44.17-40.63 53.69-69.44z" fill="#0cc166"/><path d="m385.565 137.098v74.68h-53.69v-5.24c24.99-16.211 44.17-40.63 53.69-69.44z" fill="#ffaf40"/><path d="m306.17 186.037v25.74h-34.9c10.83-10.19 19.94-22.21 26.84-35.55 4.59.91 8.06 4.96 8.06 9.81z" fill="#e01152"/><g><path d="m162.089 253.613h-117.503c-4.563 0-8.261-3.699-8.261-8.261 0-4.563 3.699-8.261 8.261-8.261h117.502c4.563 0 8.261 3.699 8.261 8.261.001 4.562-3.698 8.261-8.26 8.261z" fill="#27b2ff"/><path d="m119.923 237.09h-54.797c-4.563 0-8.261 3.699-8.261 8.261 0 4.563 3.699 8.261 8.261 8.261h54.797c4.563 0 8.261-3.699 8.261-8.261 0-4.562-3.698-8.261-8.261-8.261z" fill="#5cceff"/><path d="m92.942 237.09h-12.466c-4.563 0-8.261 3.699-8.261 8.261 0 4.563 3.699 8.261 8.261 8.261h12.466c4.563 0 8.261-3.699 8.261-8.261 0-4.562-3.698-8.261-8.261-8.261z" fill="#73e1ff"/><path d="m209.699 284.94h-165.113c-4.563 0-8.261-3.699-8.261-8.261 0-4.563 3.699-8.261 8.261-8.261h165.113c4.563 0 8.261 3.699 8.261 8.261 0 4.562-3.698 8.261-8.261 8.261z" fill="#27b2ff"/><path d="m167.534 268.417h-102.408c-4.563 0-8.261 3.699-8.261 8.261 0 4.563 3.699 8.261 8.261 8.261h102.408c4.563 0 8.261-3.699 8.261-8.261 0-4.562-3.699-8.261-8.261-8.261z" fill="#5cceff"/><path d="m114.331 268.417h-21.987c-4.563 0-8.261 3.699-8.261 8.261 0 4.563 3.699 8.261 8.261 8.261h21.988c4.563 0 8.261-3.699 8.261-8.261 0-4.562-3.699-8.261-8.262-8.261z" fill="#73e1ff"/></g><g><path d="m174.259 91.163h-32.036c-3.681 0-6.881 2.355-8.175 5.801-3.74 9.959-13.355 17.047-24.623 17.047s-20.883-7.088-24.623-17.047c-1.294-3.446-4.494-5.801-8.175-5.801h-32.045c-4.914 0-8.897 3.983-8.897 8.897v26.033c0 4.914 3.983 8.897 8.897 8.897h18.269v64.135c0 4.914 3.983 8.897 8.897 8.897h75.352c4.914 0 8.897-3.983 8.897-8.897v-64.135h18.261c4.914 0 8.897-3.983 8.897-8.897v-26.033c.001-4.914-3.982-8.897-8.896-8.897z" fill="#0d8ba0"/><path d="m183.16 100.057v26.04c0 4.91-3.99 8.89-8.9 8.89h-18.26v64.14c0 4.91-3.99 8.9-8.9 8.9h-75.35c-4.92 0-8.9-3.99-8.9-8.9v-6.06c47.86-6.38 84.77-47.36 84.77-96.96 0-1.66-.04-3.31-.13-4.94h26.77c4.91 0 8.9 3.981 8.9 8.89z" fill="#02718c"/><path d="m75.588 171.988c-7.035 0-12.738-5.703-12.738-12.738v-21.558c0-7.035 5.703-12.738 12.738-12.738 7.035 0 12.738 5.703 12.738 12.738v21.558c-.001 7.036-5.704 12.738-12.738 12.738z" fill="#12adb5"/><path d="m156 179.177v19.95c0 4.91-3.99 8.9-8.9 8.9h-41.76c20.22-3.309 38.02-13.84 50.66-28.85z" fill="#015382"/></g><g><path d="m160.996 216.059c-2.95 0-5.818-1.044-8.087-2.968l-21.906-18.585c-5.264-4.466-5.911-12.354-1.445-17.619 4.467-5.264 12.354-5.91 17.619-1.445l12.188 10.34 43.448-53.265c4.362-5.349 12.234-6.151 17.588-1.785 5.35 4.363 6.148 12.238 1.785 17.587l-51.504 63.141c-2.122 2.602-5.201 4.24-8.544 4.547-.381.035-.762.052-1.142.052z" fill="#29e088"/><path d="m190.213 147.966-18.513 22.696c-4.055 4.971-3.688 12.204.847 16.74 5.235 5.235 13.846 4.799 18.525-.938l18.513-22.696c4.055-4.971 3.689-12.204-.847-16.74-5.235-5.235-13.846-4.799-18.525.938z" fill="#79ff79"/></g><g><g><path d="m320.698 237.09h-44.798c-4.563 0-8.261 3.699-8.261 8.261 0 4.563 3.699 8.261 8.261 8.261h44.797c4.563 0 8.261-3.699 8.261-8.261.001-4.562-3.698-8.261-8.26-8.261z" fill="#fe255f"/><path d="m298.716 237.09h-12.466c-4.563 0-8.261 3.699-8.261 8.261 0 4.563 3.699 8.261 8.261 8.261h12.466c4.563 0 8.261-3.699 8.261-8.261.001-4.562-3.698-8.261-8.261-8.261z" fill="#fc709b"/></g><g><g><path d="m320.698 268.417h-44.798c-4.563 0-8.261 3.699-8.261 8.261 0 4.563 3.699 8.261 8.261 8.261h44.797c4.563 0 8.261-3.699 8.261-8.261.001-4.562-3.698-8.261-8.26-8.261z" fill="#27b2ff"/><path d="m298.716 268.417h-12.466c-4.563 0-8.261 3.699-8.261 8.261 0 4.563 3.699 8.261 8.261 8.261h12.466c4.563 0 8.261-3.699 8.261-8.261.001-4.562-3.698-8.261-8.261-8.261z" fill="#5cceff"/></g><g><path d="m396.08 237.09h-44.797c-4.563 0-8.261 3.699-8.261 8.261 0 4.563 3.699 8.261 8.261 8.261h44.797c4.563 0 8.261-3.699 8.261-8.261 0-4.562-3.698-8.261-8.261-8.261z" fill="#ffc751"/><path d="m374.099 237.09h-12.466c-4.563 0-8.261 3.699-8.261 8.261 0 4.563 3.699 8.261 8.261 8.261h12.466c4.563 0 8.261-3.699 8.261-8.261 0-4.562-3.699-8.261-8.261-8.261z" fill="#ffe059"/></g><g><path d="m396.08 268.417h-44.797c-4.563 0-8.261 3.699-8.261 8.261 0 4.563 3.699 8.261 8.261 8.261h44.797c4.563 0 8.261-3.699 8.261-8.261 0-4.562-3.698-8.261-8.261-8.261z" fill="#27b2ff"/><path d="m374.099 268.417h-12.466c-4.563 0-8.261 3.699-8.261 8.261 0 4.563 3.699 8.261 8.261 8.261h12.466c4.563 0 8.261-3.699 8.261-8.261 0-4.562-3.699-8.261-8.261-8.261z" fill="#5cceff"/></g><g><path d="m471.462 237.09h-44.797c-4.563 0-8.261 3.699-8.261 8.261 0 4.563 3.699 8.261 8.261 8.261h44.797c4.563 0 8.261-3.699 8.261-8.261.001-4.562-3.698-8.261-8.261-8.261z" fill="#29e088"/><path d="m449.481 237.09h-12.465c-4.563 0-8.261 3.699-8.261 8.261 0 4.563 3.699 8.261 8.261 8.261h12.465c4.563 0 8.261-3.699 8.261-8.261 0-4.562-3.698-8.261-8.261-8.261z" fill="#79ff79"/></g><g><path d="m471.462 268.417h-44.797c-4.563 0-8.261 3.699-8.261 8.261 0 4.563 3.699 8.261 8.261 8.261h44.797c4.563 0 8.261-3.699 8.261-8.261.001-4.562-3.698-8.261-8.261-8.261z" fill="#27b2ff"/><path d="m449.481 268.417h-12.465c-4.563 0-8.261 3.699-8.261 8.261 0 4.563 3.699 8.261 8.261 8.261h12.465c4.563 0 8.261-3.699 8.261-8.261 0-4.562-3.698-8.261-8.261-8.261z" fill="#5cceff"/></g></g></g></g></svg>